<?xml version="1.0" standalone="no"?>
<!DOCTYPE svg PUBLIC "-//W3C//DTD SVG 20010904//EN"
 "http://www.w3.org/TR/2001/REC-SVG-20010904/DTD/svg10.dtd">
<svg version="1.0" xmlns="http://www.w3.org/2000/svg"
 width="222.000000pt" height="222.000000pt" viewBox="0 0 222.000000 222.000000"
 preserveAspectRatio="xMidYMid meet">
<metadata>
Created by potrace 1.14, written by Peter Selinger 2001-2017
</metadata>
<g transform="translate(0.000000,222.000000) scale(0.100000,-0.100000)"
fill="#000000" stroke="none">
<path d="M0 1110 l0 -1110 1110 0 1110 0 0 1110 0 1110 -1110 0 -1110 0 0
-1110z m1175 921 c22 -10 51 -30 64 -45 17 -18 35 -26 57 -26 70 0 152 -51
192 -119 21 -36 27 -58 26 -105 l-1 -58 46 5 c61 7 149 -8 172 -29 32 -29 22
-90 -22 -140 -18 -19 -18 -23 -3 -68 16 -47 13 -93 -10 -146 -5 -12 4 -21 32
-33 21 -9 48 -26 60 -37 24 -23 62 -91 62 -113 0 -8 13 -32 30 -55 60 -83 61
-194 3 -256 -21 -23 -23 -31 -14 -54 34 -87 20 -164 -39 -220 -22 -20 -40 -43
-40 -50 0 -39 -71 -131 -122 -158 -15 -8 -44 -14 -65 -14 -29 0 -45 -7 -66
-29 -36 -39 -87 -55 -146 -47 -52 8 -54 8 -131 0 -43 -5 -61 -12 -83 -34 -38
-39 -88 -54 -159 -47 -42 4 -72 13 -101 33 -35 23 -50 27 -103 25 -73 -3 -116
13 -173 64 -22 20 -44 34 -49 31 -5 -3 -26 0 -48 5 -53 15 -121 86 -136 144
-9 34 -21 51 -50 70 -66 44 -91 126 -64 205 14 42 14 46 -3 65 -62 68 -63 178
-2 255 15 19 31 51 35 71 10 55 57 113 113 139 26 13 49 24 51 26 2 1 -4 16
-12 33 -20 38 -20 91 -1 138 10 24 12 39 5 43 -43 26 -74 113 -52 147 14 23
67 35 148 35 l81 0 -1 57 c0 61 24 119 66 158 35 33 108 63 154 63 34 0 45 5
59 26 38 58 161 82 240 45z m145 -1840 c0 -10 -7 -21 -15 -25 -23 -8 -45 4
-45 25 0 14 7 19 30 19 23 0 30 -5 30 -19z"/>
<path d="M1023 1990 c-23 -10 -47 -29 -54 -42 -17 -33 -28 -38 -82 -38 -76 0
-134 -36 -169 -104 -23 -45 -20 -113 6 -132 17 -12 21 -39 8 -47 -4 -3 -31 -1
-60 4 -29 6 -78 9 -110 7 l-57 -3 43 -29 c39 -26 47 -28 102 -23 63 7 84 -4
57 -30 -21 -21 -100 -28 -139 -13 -18 7 -48 24 -65 37 -36 26 -42 20 -17 -16
40 -57 176 -81 227 -41 14 11 35 46 47 78 12 31 27 66 35 78 10 16 11 29 2 61
-8 31 -7 48 3 72 14 35 60 64 84 55 23 -9 20 -31 -6 -45 -30 -16 -38 -28 -38
-61 0 -62 99 -91 144 -43 28 30 37 31 54 5 8 -13 23 -20 42 -20 29 0 38 6 64
44 17 25 39 11 33 -21 -5 -29 11 -38 49 -29 46 12 74 50 74 100 0 49 12 65 35
46 17 -14 20 -82 5 -111 -8 -15 -7 -19 4 -19 18 0 46 38 46 63 0 22 27 34 42
19 8 -8 9 -23 2 -49 -12 -49 -64 -86 -114 -80 -19 2 -51 -3 -70 -11 -29 -12
-43 -12 -86 -2 -29 7 -59 10 -68 7 -8 -3 -29 -2 -46 3 -22 6 -41 4 -67 -7 -35
-14 -70 -13 -129 3 -19 5 -24 -2 -47 -70 -18 -52 -22 -76 -14 -79 8 -2 13 -44
14 -127 1 -69 5 -136 8 -150 7 -26 42 -70 57 -70 4 0 8 63 8 139 0 135 -1 141
-25 167 -28 30 -30 39 -14 50 17 10 56 -15 75 -51 15 -28 16 -53 12 -212 -6
-195 -2 -223 45 -260 67 -52 163 -50 228 4 52 44 56 65 51 263 -4 169 -4 180
17 213 22 36 46 52 62 41 16 -9 10 -35 -13 -54 -21 -16 -23 -29 -26 -125 -4
-111 3 -175 18 -175 5 0 19 15 32 33 21 29 23 45 26 167 2 74 8 140 13 146 6
7 2 28 -10 56 -20 47 -15 75 12 65 9 -3 24 -26 35 -51 27 -60 66 -80 144 -74
61 4 98 24 126 66 14 21 11 20 -43 -8 -64 -34 -113 -38 -169 -15 -63 27 -46
42 47 41 67 -1 87 3 109 19 15 11 28 24 28 29 0 5 -37 6 -87 2 -152 -13 -157
-13 -161 7 -2 12 3 20 16 24 28 7 46 55 37 100 -15 82 -94 143 -183 143 -45 0
-51 3 -73 35 -37 54 -121 74 -186 45z m142 -65 c14 -13 25 -31 25 -40 0 -28
-29 -29 -54 -2 -20 22 -30 25 -60 20 -31 -5 -36 -3 -36 14 0 28 8 33 57 33 33
0 50 -6 68 -25z m-157 -48 c2 -12 -3 -17 -17 -17 -12 0 -21 6 -21 13 0 31 32
34 38 4z m-38 -52 c0 -8 -7 -15 -15 -15 -8 0 -15 7 -15 15 0 8 7 15 15 15 8 0
15 -7 15 -15z m286 4 c10 -17 -13 -36 -27 -22 -12 12 -4 33 11 33 5 0 12 -5
16 -11z m-335 -257 c27 -22 20 -59 -9 -47 -9 5 -32 13 -49 19 -31 10 -41 25
-26 39 13 13 61 7 84 -11z m416 2 c2 -7 -17 -22 -42 -34 -36 -17 -49 -20 -58
-11 -9 10 -5 18 17 37 29 26 76 30 83 8z m-247 -406 c8 0 27 4 43 8 23 5 27 3
27 -15 0 -13 -10 -26 -25 -33 -18 -8 -25 -19 -25 -40 0 -38 25 -47 52 -18 18
19 22 20 35 8 18 -19 7 -45 -26 -62 -36 -19 -157 -12 -182 10 -21 19 -25 49
-8 59 6 4 21 -2 33 -14 32 -30 46 -26 46 14 0 28 -5 38 -25 47 -42 19 -29 54
15 42 14 -4 32 -7 40 -6z"/>
<path d="M710 1465 c-14 -8 -35 -14 -48 -15 -27 0 -72 -42 -72 -66 0 -10 -10
-28 -22 -42 -34 -35 -32 -102 5 -139 22 -24 27 -38 27 -80 0 -66 27 -103 76
-103 27 0 37 -5 45 -24 12 -25 47 -46 79 -46 34 0 25 -37 -9 -42 -34 -5 -54 4
-92 39 l-26 24 -27 -31 c-45 -54 -31 -103 37 -129 31 -12 34 -23 12 -41 -43
-36 11 -104 93 -116 26 -3 50 -8 54 -11 12 -6 -3 -33 -18 -33 -17 0 -18 -11
-3 -43 11 -24 66 -57 95 -57 29 0 81 31 94 55 15 28 38 33 46 11 9 -24 -24
-73 -62 -91 -57 -27 -145 -17 -184 20 -17 16 -35 45 -41 65 -8 28 -21 41 -52
56 -50 24 -87 75 -87 119 0 19 -8 39 -20 50 -44 40 -49 119 -10 168 19 24 19
24 -7 48 -31 29 -56 84 -48 109 6 19 -43 109 -60 110 -19 0 -74 -39 -90 -64
-9 -14 -19 -44 -23 -68 -3 -28 -13 -49 -29 -61 -66 -52 -70 -165 -8 -217 14
-12 15 -9 9 28 -9 55 2 106 30 139 13 16 26 48 29 73 4 33 14 52 37 73 35 31
48 34 57 10 4 -10 -1 -22 -14 -32 -11 -9 -23 -29 -27 -44 -5 -22 -3 -27 13
-27 39 0 32 -29 -13 -51 -48 -22 -66 -51 -66 -108 0 -50 30 -88 76 -97 28 -5
35 -10 32 -28 -2 -17 -9 -21 -37 -19 -18 1 -46 11 -62 22 l-28 21 -16 -23
c-25 -38 -29 -107 -8 -147 20 -39 53 -53 53 -23 0 25 19 43 37 36 10 -4 12
-16 7 -50 -4 -26 -1 -62 6 -89 15 -53 74 -121 112 -130 27 -6 28 -6 16 26 -8
26 -8 34 3 41 22 14 26 11 43 -30 43 -109 155 -168 241 -129 22 10 29 8 53
-15 35 -33 72 -47 128 -47 54 0 95 19 113 53 12 22 19 25 70 24 37 -1 65 4 81
15 22 15 27 15 44 2 27 -19 95 -18 128 4 14 9 36 30 48 45 20 25 26 27 68 21
58 -7 85 11 126 86 25 46 28 59 22 106 -6 53 -6 54 19 54 18 0 25 -5 25 -20 0
-31 20 -23 36 15 19 47 18 83 -6 130 -24 46 -26 75 -6 75 8 0 24 13 35 29 43
60 40 136 -8 188 -15 17 -31 47 -34 67 -13 80 -84 145 -159 146 -46 0 -57 -9
-52 -43 7 -45 -32 -118 -73 -137 -27 -13 -33 -21 -33 -50 -1 -59 -33 -116 -80
-140 -22 -11 -50 -30 -60 -40 -33 -33 -110 -24 -110 11 0 15 7 19 39 19 24 0
44 6 52 17 8 9 29 22 46 30 51 21 67 53 60 123 l-7 60 31 0 c21 0 40 10 61 31
28 28 30 34 24 77 -6 44 -4 49 24 72 25 21 31 33 32 67 1 59 -27 101 -72 109
-19 3 -50 12 -68 20 -18 8 -34 14 -36 14 -2 0 -6 -57 -8 -127 -4 -144 -23
-200 -79 -231 -21 -12 -33 -29 -40 -59 -24 -91 -113 -156 -217 -155 -101 1
-194 73 -208 163 -4 25 -13 40 -29 47 -33 15 -72 71 -83 117 -5 22 -7 76 -5
120 4 81 -2 125 -15 125 -4 -1 -18 -7 -32 -15z m-36 -116 c29 -13 41 -38 27
-52 -12 -12 -81 21 -81 39 0 25 17 29 54 13z m835 2 c21 -13 5 -41 -23 -41
-33 0 -44 20 -21 37 22 15 25 16 44 4z m-799 -196 c4 -31 13 -44 40 -63 19
-13 35 -29 35 -35 0 -17 -40 -21 -65 -7 -46 25 -76 110 -48 138 20 20 33 8 38
-33z m1019 -11 c21 -17 33 -38 37 -64 4 -22 15 -47 25 -56 42 -38 48 -154 8
-154 -20 0 -22 6 -19 57 1 23 -8 41 -34 70 -25 28 -33 46 -30 61 6 21 -26 64
-56 74 -20 6 -4 38 19 38 11 0 33 -12 50 -26z m-53 -126 c4 -6 8 -39 8 -72 1
-48 6 -66 22 -84 28 -30 37 -74 22 -110 -6 -15 -12 -46 -13 -69 -2 -54 -28
-93 -60 -93 -31 0 -34 30 -5 48 20 12 28 52 10 52 -17 0 -11 29 10 50 22 22
26 51 10 81 -14 24 -24 24 -59 -2 -19 -14 -39 -19 -62 -17 -43 4 -45 29 -3 40
16 4 41 19 55 34 21 22 24 34 22 90 -1 56 1 64 17 64 11 0 22 -5 26 -12z
m-1176 -164 c11 -12 10 -18 -3 -32 -16 -15 -18 -15 -34 0 -13 14 -14 20 -3 32
7 9 16 16 20 16 4 0 13 -7 20 -16z m440 -26 c0 -56 67 -118 127 -118 38 0 57
-14 49 -35 -5 -15 -15 -17 -56 -12 -94 11 -148 61 -158 143 -4 40 -3 44 17 44
15 0 21 -6 21 -22z m558 -131 c2 -15 -6 -47 -17 -70 -46 -96 -174 -129 -259
-67 -30 21 -42 37 -42 55 0 18 5 25 19 25 10 0 21 -6 24 -14 3 -8 17 -22 30
-30 76 -50 197 6 197 92 0 16 3 32 7 36 15 15 38 0 41 -27z m-926 -48 c-3 -40
0 -49 24 -68 15 -11 33 -21 40 -21 18 0 18 -36 1 -43 -23 -9 -76 21 -97 55
-33 54 -25 132 13 126 19 -3 21 -9 19 -49z m-76 -110 c10 -17 -13 -36 -27 -22
-12 12 -4 33 11 33 5 0 12 -5 16 -11z m1068 -30 c7 -30 5 -45 -13 -82 -28 -59
-69 -79 -154 -76 -38 1 -79 -5 -106 -15 -52 -20 -94 -14 -89 12 2 11 14 18 33
20 53 5 86 24 112 65 26 42 40 40 45 -8 4 -35 25 -43 68 -25 34 14 60 64 60
115 0 29 3 36 18 33 10 -2 21 -18 26 -39z m116 -26 c0 -51 -28 -93 -62 -93
-29 0 -34 30 -9 49 18 14 26 34 30 84 1 4 10 7 21 7 17 0 20 -7 20 -47z
m-1130 -33 c0 -34 -15 -46 -35 -30 -18 15 -19 42 -4 57 18 18 39 3 39 -27z
m187 -11 c-4 -45 -2 -55 23 -82 25 -28 34 -32 81 -32 43 0 54 -3 57 -17 5 -24
-42 -41 -88 -33 -74 14 -120 71 -120 148 0 44 13 67 38 67 10 0 13 -12 9 -51z
m246 -104 c38 -38 78 -45 110 -20 38 28 64 -7 29 -38 -45 -41 -132 -29 -177
24 -27 33 -33 69 -11 69 8 0 30 -16 49 -35z"/>
<path d="M520 1451 c-11 -22 -17 -88 -7 -97 3 -4 17 15 29 42 12 27 24 52 25
55 2 4 -5 9 -17 12 -13 3 -24 -1 -30 -12z"/>
<path d="M1623 1464 c-8 -4 -6 -14 8 -37 10 -18 19 -47 19 -65 0 -20 4 -31 10
-27 14 8 13 78 -2 110 -11 26 -14 27 -35 19z"/>
</g>
</svg>
